<svg xmlns="http://www.w3.org/2000/svg" width="900" height="1200" viewBox="0 0 900 1200" role="img" aria-label="Dog cover image">
  <rect width="900" height="1200" fill="#f8fafc"/>
  <ellipse cx="450" cy="1000" rx="210" ry="60" fill="#e2e8f0"/>
  <g fill="#334155">
    <path d="M260 370c0-115 85-200 190-200s190 85 190 200v210c0 95-77 172-172 172H432c-95 0-172-77-172-172V370z"/>
    <path d="M265 270c-40-45-38-120 10-170 53 20 93 68 104 124-36 30-72 46-114 46z"/>
    <path d="M635 270c40-45 38-120-10-170-53 20-93 68-104 124 36 30 72 46 114 46z"/>
    <circle cx="385" cy="430" r="18" fill="#f8fafc"/>
    <circle cx="515" cy="430" r="18" fill="#f8fafc"/>
    <ellipse cx="450" cy="500" rx="46" ry="36" fill="#0f172a"/>
    <path d="M395 560c40 38 70 38 110 0" stroke="#0f172a" stroke-width="20" fill="none" stroke-linecap="round"/>
  </g>
</svg>
